<?xml version="1.0" encoding="UTF-8" standalone="no"?>
<svg width="256px" height="256px" viewBox="0 0 256 256" version="1.1" xmlns="http://www.w3.org/2000/svg" xmlns:xlink="http://www.w3.org/1999/xlink">
    <!-- Generator: Sketch 3.8.3 (29802) - http://www.bohemiancoding.com/sketch -->
    <title>globe-color</title>
    <desc>Created with Sketch.</desc>
    <defs></defs>
    <g id="Page-1" stroke="none" stroke-width="1" fill="none" fill-rule="evenodd">
        <g id="globe-color">
            <path d="M239.737678,130.891838 L239.737678,128.533829 L239.737678,126.17582 L193.38188,126.17582 C193.145371,107.311748 190.307261,89.1550778 185.340568,71.9416115 C195.983481,68.8761997 206.389885,64.6317834 216.32327,59.9157652 C215.377233,58.7367607 214.194688,57.3219552 213.248651,56.1429507 C203.788284,60.6231679 194.091408,64.3959825 184.158023,67.4613943 C179.19133,51.6627334 172.096055,36.5714753 163.345215,22.6592218 C160.980124,21.9518191 158.851541,21.2444163 156.486449,20.5370136 C166.183325,35.3924708 174.224637,51.4269325 179.664348,68.6403988 C164.054743,72.8848151 147.499101,75.2428242 130.706949,75.4786251 L130.706949,17 L128.341858,17 L125.976766,17 L125.976766,75.4786251 C109.184614,75.2428242 92.8654815,72.8848151 77.255876,68.8761997 C82.695587,51.6627334 90.7368989,35.3924708 100.433775,20.3012127 C98.0686833,21.0086154 95.7035916,21.4802172 93.575009,22.4234209 C84.8241696,36.3356744 77.7288944,51.6627334 72.7622017,67.4613943 C62.5923072,64.3959825 52.6589219,60.6231679 43.198555,56.1429507 C42.2525183,57.3219552 41.0699724,58.7367607 40.1239357,59.9157652 C50.057321,64.8675843 60.7002338,68.8761997 71.3431467,71.9416115 C66.376454,89.1550778 63.5383439,107.311748 63.3018348,125.940019 L16,125.940019 L16,128.298028 L16,130.656038 L62.8288164,130.656038 C63.0653256,150.699115 66.1399448,170.034789 72.0526742,188.42726 C61.6462705,191.492672 51.7128852,195.265486 42.0160091,199.745704 C42.9620458,200.924708 44.1445917,202.339513 45.3271375,203.518518 C54.5509953,199.274102 64.0113623,195.737088 73.7082384,192.907477 C78.674931,207.527133 85.2971879,221.439387 93.3384998,234.408437 C95.7035916,235.11584 97.8321741,235.823242 100.197266,236.530645 C90.9734081,222.618392 83.6416237,207.527133 78.2019127,191.728473 C93.3384998,187.719857 109.184614,185.597649 125.503747,185.361848 L125.503747,239.831858 L127.868839,239.831858 L130.233931,239.831858 L130.233931,185.597649 C146.789573,185.83345 162.635688,187.955658 178.008784,191.964274 C172.569073,207.762934 165.237289,222.854192 156.013431,236.530645 C158.378523,235.823242 160.743614,235.11584 162.872197,234.408437 C170.913509,221.439387 177.535766,207.762934 182.502458,193.143278 C192.199334,195.972889 201.423192,199.509903 210.410541,203.518518 C211.593087,202.339513 212.539123,201.160509 213.721669,199.745704 C204.261302,195.265486 194.327917,191.492672 183.921513,188.42726 C189.834243,170.506391 193.145371,150.934916 193.38188,130.891838 L239.737678,130.891838 Z M125.604288,180.714749 C108.804089,180.949731 92.2405134,183.064576 76.6234275,187.294265 C70.9444871,169.435577 67.8683944,150.636958 67.6317719,131.133391 L125.604288,131.133391 L125.604288,180.714749 L125.604288,180.714749 Z M125.604288,125.698467 L67.6317719,125.698467 C67.8683944,107.404127 70.7078646,89.8134152 75.4403149,73.1608747 C91.5306458,77.3826456 108.094222,79.7280738 125.367665,79.9626166 L125.367665,125.698467 L125.604288,125.698467 Z M130.133391,79.9626166 C147.572277,79.7280738 164.304182,77.3826456 180.329106,73.1608747 C185.277979,89.8134152 188.105906,107.63867 188.105906,125.698467 L130.133391,125.698467 L130.133391,79.9626166 L130.133391,79.9626166 Z M179.35568,188.200086 C163.576286,183.920084 147.090351,181.780083 130.133391,181.542305 L130.133391,131.133391 L189.011727,131.133391 C188.776214,150.868956 184.772487,170.128966 179.35568,188.200086 L179.35568,188.200086 Z" id="Shape" fill="#000000"></path>
            <path d="M128,1.65925926 C58.0740741,1.65925926 1.65925926,58.3111111 1.65925926,128 C1.65925926,197.688889 58.3111111,254.340741 128,254.340741 C197.925926,254.340741 254.340741,197.688889 254.340741,128 C254.340741,58.3111111 197.925926,1.65925926 128,1.65925926 Z M128,11.1407407 C192.474074,11.1407407 244.859259,63.5259259 244.859259,128 C244.859259,192.474074 192.474074,244.859259 128,244.859259 C63.5259259,244.859259 11.1407407,192.474074 11.1407407,128 C11.1407407,63.5259259 63.5259259,11.1407407 128,11.1407407 Z" id="Shape" fill="#3B97D3"></path>
        </g>
    </g>
</svg>