<svg xmlns="http://www.w3.org/2000/svg" xmlns:xlink="http://www.w3.org/1999/xlink"><symbol viewBox="-8 -8 272 272" id="chevron-down"><title>chevron-down</title><path d="M118.863 195.21L3.779 80.09c-5.039-5.052-5.039-13.236 0-18.3 5.039-5.052 13.223-5.052 18.262 0l105.953 105.99L233.946 61.802c5.039-5.051 13.224-5.051 18.275 0 5.039 5.052 5.039 13.25 0 18.3L137.137 195.225c-4.987 4.974-13.3 4.974-18.274-.013z"/></symbol><symbol viewBox="-8 -8 272 272" id="chevron-left"><title>chevron-left</title><path d="M61.742 118.863L176.864 3.779c5.052-5.039 13.236-5.039 18.3 0 5.052 5.039 5.052 13.223 0 18.262L89.175 127.994l105.978 105.952c5.051 5.039 5.051 13.224 0 18.275-5.052 5.039-13.25 5.039-18.3 0L61.728 137.137c-4.974-4.987-4.974-13.3.013-18.274z"/></symbol><symbol viewBox="-8 -8 272 272" id="chevron-right"><title>chevron-right</title><path d="M195.21 118.863L80.09 3.779c-5.052-5.039-13.236-5.039-18.3 0-5.052 5.039-5.052 13.223 0 18.262l105.99 105.953L61.802 233.946c-5.051 5.039-5.051 13.224 0 18.275 5.052 5.039 13.25 5.039 18.3 0l115.123-115.084c4.974-4.987 4.974-13.3-.013-18.274z"/></symbol><symbol viewBox="-8 -8 272 272" id="chevron-up"><title>chevron-up</title><path d="M137.137 61.742l115.084 115.122c5.039 5.052 5.039 13.236 0 18.3-5.039 5.052-13.223 5.052-18.262 0L128.006 89.175 22.054 195.152c-5.039 5.051-13.224 5.051-18.275 0-5.039-5.052-5.039-13.25 0-18.3L118.863 61.728c4.987-4.974 13.3-4.974 18.274.013z"/></symbol><symbol viewBox="-8 -8 272 272" id="globe-color"><title>globe-color</title><g fill="none"><path d="M239.738 130.892v-4.716h-46.356c-.237-18.864-3.075-37.02-8.041-54.234 10.642-3.066 21.049-7.31 30.982-12.026-.946-1.18-2.128-2.594-3.074-3.773a218.254 218.254 0 0 1-29.091 11.318c-4.967-15.798-12.062-30.89-20.813-44.802-2.365-.707-4.493-1.415-6.859-2.122 9.697 14.855 17.739 30.89 23.178 48.103-15.61 4.245-32.165 6.603-48.957 6.839V17h-4.73v58.479c-16.792-.236-33.112-2.594-48.721-6.603 5.44-17.213 13.48-33.484 23.178-48.575-2.365.708-4.73 1.18-6.859 2.122-8.75 13.913-15.846 29.24-20.813 45.038-10.17-3.065-20.103-6.838-29.563-11.318-.946 1.179-2.129 2.594-3.075 3.773 9.933 4.952 20.576 8.96 31.22 12.026-4.968 17.213-7.806 35.37-8.042 53.998H16v4.716h46.829c.236 20.043 3.31 39.379 9.224 57.771-10.407 3.066-20.34 6.838-30.037 11.319.946 1.179 2.129 2.594 3.311 3.773a205.548 205.548 0 0 1 28.381-10.612 202.238 202.238 0 0 0 19.63 41.501c2.366.708 4.494 1.415 6.86 2.123-9.225-13.913-16.556-29.004-21.996-44.803 15.136-4.008 30.983-6.13 47.302-6.366v54.47h4.73v-54.234c16.556.235 32.402 2.358 47.775 6.366-5.44 15.799-12.772 30.89-21.996 44.567 2.366-.708 4.73-1.415 6.86-2.123 8.04-12.969 14.663-26.645 19.63-41.265 9.696 2.83 18.92 6.367 27.908 10.376 1.182-1.18 2.128-2.358 3.31-3.773-9.46-4.48-19.393-8.253-29.8-11.319 5.913-17.92 9.224-37.492 9.46-57.535h46.357zm-114.134 49.823c-16.8.235-33.363 2.35-48.98 6.58-5.68-17.86-8.756-36.658-8.992-56.162h57.972v49.582zm0-55.017H67.632c.236-18.294 3.076-35.885 7.808-52.537 16.09 4.222 32.654 6.567 49.928 6.802v45.735h.236zm4.53-45.735c17.438-.235 34.17-2.58 50.195-6.802 4.949 16.652 7.777 34.478 7.777 52.537h-57.973V79.963zM179.355 188.2c-15.78-4.28-32.266-6.42-49.223-6.658v-50.409h58.879c-.236 19.736-4.24 38.996-9.656 57.067z" fill="#000"/><path d="M128 1.66C58.074 1.66 1.66 58.31 1.66 128S58.31 254.34 128 254.34c69.926 0 126.34-56.651 126.34-126.34S197.927 1.66 128 1.66zm0 9.48c64.474 0 116.86 52.386 116.86 116.86 0 64.474-52.386 116.86-116.86 116.86-64.474 0-116.86-52.386-116.86-116.86C11.14 63.526 63.527 11.14 128 11.14z" fill="#3B97D3"/></g></symbol></svg>
